# xmcd
#
# Track frame offsets:
#	150
#	24946
#	36772
#	50046
#	62344
#	81887
#	94534
#	111529
#	126978
#	140127
#	149933
#	173489
#	202339
#	212647
#	239114
#	249324
#
# Disc length: 3467 seconds
#
# Revision: 1
# Processed by: cddbd v1.5.2PL0 Copyright (c) Steve Scherf et al.
# Submitted via: audiograbber 1.83.01
#
DISCID=f70d8910
DTITLE=Various Artist - The Essential Blues Vol. 2
DYEAR=1996
DGENRE=Blues
TTITLE0=Muddy Waters - Mannish Boy
TTITLE1=John Lee Hooker - Boom Boom
TTITLE2=Howlin' Wolf - Evil
TTITLE3=Bobby Blue Band - Turn on Your Love Light
TTITLE4=Fenton Robinson - I Hear Some Blues Downstairs
TTITLE5=Little Walter - Juke
TTITLE6=Clifton Chenier - I'm a Hog for You Baby
TTITLE7=Z.Z. Hill - I Need Someone (To Love Me)
TTITLE8=Albert King - Born Under a Bad Sign
TTITLE9=Junior Wells - Hoodoo Man Blues
TTITLE10=Son Seals - Frigidaire Woman
TTITLE11=Buddy Gay - Man and the Blues
TTITLE12=Otis Spann - Spann's Boogie Woogie
TTITLE13=Lonnie Brooks - Sweet Home Chicago
TTITLE14=James Brown - Messing With the Blues
TTITLE15=Jimmy Reed - Baby, What You Want Me to Do
EXTD=
EXTT0=
EXTT1=
EXTT2=
EXTT3=
EXTT4=
EXTT5=
EXTT6=
EXTT7=
EXTT8=
EXTT9=
EXTT10=
EXTT11=
EXTT12=
EXTT13=
EXTT14=
EXTT15=
PLAYORDER=
